<?xml version="1.0" encoding="UTF-8" standalone="no"?><svg xmlns:svg="http://www.w3.org/2000/svg" xmlns="http://www.w3.org/2000/svg" xmlns:xlink="http://www.w3.org/1999/xlink" version="1.0" width="34px" height="34px" viewBox="0 0 128 128" xml:space="preserve"><rect x="0" y="0" width="100%" height="100%" fill="#FFFFFF" /><g><path d="M64 1.5a62.8 62.8 0 0 0-12.4 1.23l-.38-1.45a64.56 64.56 0 0 1 25.57 0l-.4 1.45A62.78 62.78 0 0 0 64 1.5zm0 3a59.78 59.78 0 0 1 11.62 1.14L71.34 21.6a43.43 43.43 0 0 0-14.67.04l-4.3-16A59.78 59.78 0 0 1 64.02 4.5z" fill="#9507db"/><path d="M64 1.5a62.8 62.8 0 0 0-12.4 1.23l-.38-1.45a64.56 64.56 0 0 1 25.57 0l-.4 1.45A62.78 62.78 0 0 0 64 1.5zm0 3a59.78 59.78 0 0 1 11.62 1.14L71.34 21.6a43.43 43.43 0 0 0-14.67.04l-4.3-16A59.78 59.78 0 0 1 64.02 4.5z" fill="#fcf8fe" transform="rotate(30 64 64)"/><path d="M64 1.5a62.8 62.8 0 0 0-12.4 1.23l-.38-1.45a64.56 64.56 0 0 1 25.57 0l-.4 1.45A62.78 62.78 0 0 0 64 1.5zm0 3a59.78 59.78 0 0 1 11.62 1.14L71.34 21.6a43.43 43.43 0 0 0-14.67.04l-4.3-16A59.78 59.78 0 0 1 64.02 4.5z" fill="#f5e9fc" transform="rotate(60 64 64)"/><path d="M64 1.5a62.8 62.8 0 0 0-12.4 1.23l-.38-1.45a64.56 64.56 0 0 1 25.57 0l-.4 1.45A62.78 62.78 0 0 0 64 1.5zm0 3a59.78 59.78 0 0 1 11.62 1.14L71.34 21.6a43.43 43.43 0 0 0-14.67.04l-4.3-16A59.78 59.78 0 0 1 64.02 4.5z" fill="#edd5f9" transform="rotate(90 64 64)"/><path d="M64 1.5a62.8 62.8 0 0 0-12.4 1.23l-.38-1.45a64.56 64.56 0 0 1 25.57 0l-.4 1.45A62.78 62.78 0 0 0 64 1.5zm0 3a59.78 59.78 0 0 1 11.62 1.14L71.34 21.6a43.43 43.43 0 0 0-14.67.04l-4.3-16A59.78 59.78 0 0 1 64.02 4.5z" fill="#e4c0f6" transform="rotate(120 64 64)"/><path d="M64 1.5a62.8 62.8 0 0 0-12.4 1.23l-.38-1.45a64.56 64.56 0 0 1 25.57 0l-.4 1.45A62.78 62.78 0 0 0 64 1.5zm0 3a59.78 59.78 0 0 1 11.62 1.14L71.34 21.6a43.43 43.43 0 0 0-14.67.04l-4.3-16A59.78 59.78 0 0 1 64.02 4.5z" fill="#daa8f2" transform="rotate(150 64 64)"/><path d="M64 1.5a62.8 62.8 0 0 0-12.4 1.23l-.38-1.45a64.56 64.56 0 0 1 25.57 0l-.4 1.45A62.78 62.78 0 0 0 64 1.5zm0 3a59.78 59.78 0 0 1 11.62 1.14L71.34 21.6a43.43 43.43 0 0 0-14.67.04l-4.3-16A59.78 59.78 0 0 1 64.02 4.5z" fill="#d091ef" transform="rotate(180 64 64)"/><path d="M64 1.5a62.8 62.8 0 0 0-12.4 1.23l-.38-1.45a64.56 64.56 0 0 1 25.57 0l-.4 1.45A62.78 62.78 0 0 0 64 1.5zm0 3a59.78 59.78 0 0 1 11.62 1.14L71.34 21.6a43.43 43.43 0 0 0-14.67.04l-4.3-16A59.78 59.78 0 0 1 64.02 4.5z" fill="#c577eb" transform="rotate(210 64 64)"/><path d="M64 1.5a62.8 62.8 0 0 0-12.4 1.23l-.38-1.45a64.56 64.56 0 0 1 25.57 0l-.4 1.45A62.78 62.78 0 0 0 64 1.5zm0 3a59.78 59.78 0 0 1 11.62 1.14L71.34 21.6a43.43 43.43 0 0 0-14.67.04l-4.3-16A59.78 59.78 0 0 1 64.02 4.5z" fill="#ba5fe8" transform="rotate(240 64 64)"/><path d="M64 1.5a62.8 62.8 0 0 0-12.4 1.23l-.38-1.45a64.56 64.56 0 0 1 25.57 0l-.4 1.45A62.78 62.78 0 0 0 64 1.5zm0 3a59.78 59.78 0 0 1 11.62 1.14L71.34 21.6a43.43 43.43 0 0 0-14.67.04l-4.3-16A59.78 59.78 0 0 1 64.02 4.5z" fill="#b046e4" transform="rotate(270 64 64)"/><path d="M64 1.5a62.8 62.8 0 0 0-12.4 1.23l-.38-1.45a64.56 64.56 0 0 1 25.57 0l-.4 1.45A62.78 62.78 0 0 0 64 1.5zm0 3a59.78 59.78 0 0 1 11.62 1.14L71.34 21.6a43.43 43.43 0 0 0-14.67.04l-4.3-16A59.78 59.78 0 0 1 64.02 4.5z" fill="#a630e1" transform="rotate(300 64 64)"/><path d="M64 1.5a62.8 62.8 0 0 0-12.4 1.23l-.38-1.45a64.56 64.56 0 0 1 25.57 0l-.4 1.45A62.78 62.78 0 0 0 64 1.5zm0 3a59.78 59.78 0 0 1 11.62 1.14L71.34 21.6a43.43 43.43 0 0 0-14.67.04l-4.3-16A59.78 59.78 0 0 1 64.02 4.5z" fill="#9e1bde" transform="rotate(330 64 64)"/><animateTransform attributeName="transform" type="rotate" values="0 64 64;30 64 64;60 64 64;90 64 64;120 64 64;150 64 64;180 64 64;210 64 64;240 64 64;270 64 64;300 64 64;330 64 64" calcMode="discrete" dur="1080ms" repeatCount="indefinite"></animateTransform></g></svg>
